# xmcd CD database file
#
# Track frame offsets:
#	150
#	23042
#	45705
#	61367
#	75843
#	93070
#	116660
#	149150
#	244664
#	273140
#	297995
#	317265
#
# Disc length: 4581 seconds
#
# Revision: 0
# Processed by: cddbd v1.5.2PL0 Copyright (c) Steve Scherf et al.
# Submitted via: CDex 2.23
#
DISCID=9a11e30c
DTITLE=Phil Collins - Plays Well With Others (Live 1981-2002) CD4
DYEAR=2018
DGENRE=Jazz
TTITLE0=Phil Collins - In The Air Tonight (The Secret Policeman's Other Ball 1981)
TTITLE1=George Harrison - While My Guitar Gently Weeps (The Prince's Trust 1987)
TTITLE2=The Bee Gees - You Win Again (The Prince's Trust 1988)
TTITLE3=Phil Collins and Tony Bennett - There'll Be Some Changes Made (Montreux 2004)
TTITLE4=Phil Collins and Quincy Jones - Stormy Weather (Montreux '96)
TTITLE5=The Phil Collins Big Band - Chips and Salsa (A Hot Night in Paris '99)
TTITLE6=Phil Collins with The Buddy Rich Big Band - Birdland (A Salute To Buddy Rich '99)
TTITLE7=The Phil Collins Big Band - Pick Up The Pieces (Montreux Jazz Festival '98)
TTITLE8=Eric Clapton - Layla (Party At The Palace 2002)
TTITLE9=Annie Lennox - Why (Party At The Palace 2002)
TTITLE10=Bryan Adams - Everything I Do (I Do It For You) (Party At The Palace 2002)
TTITLE11=Joe Cocker - With A Little Help With My Friends (Party At The Palace 2002)
EXTD=YEAR: 2018
EXTT0=
EXTT1=
EXTT2=
EXTT3=
EXTT4=
EXTT5=
EXTT6=
EXTT7=
EXTT8=
EXTT9=
EXTT10=
EXTT11=
PLAYORDER=
